<?xml version="1.0" encoding="utf-8"?>
<!-- Generator: Adobe Illustrator 21.1.0, SVG Export Plug-In . SVG Version: 6.00 Build 0)  -->
<svg version="1.1" id="a03b3b0b-eff7-42a4-8a5b-f80e6eb6295c"
	 xmlns="http://www.w3.org/2000/svg" xmlns:xlink="http://www.w3.org/1999/xlink" x="0px" y="0px" viewBox="0 0 840 600"
	 style="enable-background:new 0 0 840 600;" xml:space="preserve">
<style type="text/css">
	.st0{enable-background:new    ;}
	.st1{fill:#ECF0F1;}
</style>
<title>lockup</title>
<g class="st0">
	<path class="st1" d="M238.5,236.6h-33.3l-5.7-38.1H159l-5.7,38.1H123l33.6-210h48.3L238.5,236.6z M163.2,170H195L179.1,63.8
		L163.2,170z"/>
	<path class="st1" d="M343.5,74.9v7.5c0,21.6-6.6,35.4-21.3,42.3c17.7,6.9,24.6,22.8,24.6,45v17.1c0,32.4-17.1,49.8-50.1,49.8h-51.9
		v-210h49.8C328.8,26.6,343.5,42.5,343.5,74.9z M277.8,56.6v55.5h12.9c12.3,0,19.8-5.4,19.8-22.2V78.2c0-15-5.1-21.6-16.8-21.6
		H277.8z M277.8,142.1v64.5h18.9c11.1,0,17.1-5.1,17.1-20.7v-18.3c0-19.5-6.3-25.5-21.3-25.5H277.8z"/>
	<path class="st1" d="M354.9,77c0-33.6,17.7-52.8,50.1-52.8c32.4,0,50.1,19.2,50.1,52.8v109.2c0,33.6-17.7,52.8-50.1,52.8
		c-32.4,0-50.1-19.2-50.1-52.8V77z M387.9,188.3c0,15,6.6,20.7,17.1,20.7c10.5,0,17.1-5.7,17.1-20.7V74.9c0-15-6.6-20.7-17.1-20.7
		c-10.5,0-17.1,5.7-17.1,20.7V188.3z"/>
	<path class="st1" d="M498.9,26.6v162c0,15,6.6,20.4,17.1,20.4s17.1-5.4,17.1-20.4v-162h31.2v159.9c0,33.6-16.8,52.8-49.2,52.8
		s-49.2-19.2-49.2-52.8V26.6H498.9z"/>
	<path class="st1" d="M568.2,26.6h102v30h-34.5v180h-33v-180h-34.5V26.6z"/>
</g>
<image style="overflow:visible;enable-background:new    ;" width="2457" height="1617" xlink:href="home-photo.png"  transform="matrix(0.33 0 0 0.33 0 72.9)">
</image>
</svg>
