<?xml version="1.0" encoding="utf-8"?>
<!-- Generator: Adobe Illustrator 21.1.0, SVG Export Plug-In . SVG Version: 6.00 Build 0)  -->
<svg version="1.1" xmlns="http://www.w3.org/2000/svg" xmlns:xlink="http://www.w3.org/1999/xlink" x="0px" y="0px"
	 viewBox="0 0 804 600" style="enable-background:new 0 0 804 600;" xml:space="preserve">
<style type="text/css">
	.st0{enable-background:new    ;}
	.st1{fill:#8E44AD;}
</style>
<g id="_x39_eae9b3f-b1b8-415c-81d9-bde338229d3a">
	<title>lockup</title>
	<g class="st0">
		<path class="st1" d="M255.6,290.6l4.7,9.4c5.7,11.3,3.3,20.5-7.5,26c-10.9,5.5-19.7,1.9-25.4-9.4L208.9,280
			c-5.7-11.3-3.3-20.5,7.5-26c10.9-5.5,19.7-1.9,25.4,9.4l3.5,6.8l-10.5,5.3l-3.8-7.5c-2.5-5-5.7-5.8-9.2-4
			c-3.5,1.8-4.8,4.8-2.2,9.8l19.2,38c2.5,5,5.7,5.7,9.2,3.9c3.5-1.8,4.8-4.7,2.3-9.7l-5.1-10.1L255.6,290.6z"/>
		<path class="st1" d="M309.5,296.3l-11.2,5.6l-8.4-11.8l-13.6,6.9l4.5,13.7l-10.2,5.1l-24.3-76.1l16.2-8.2L309.5,296.3z M273,286.7
			l10.7-5.4l-23.3-32.9L273,286.7z"/>
		<path class="st1" d="M277.2,224.3l11.1-5.6l30.5,60.3l18.2-9.2l5.1,10.1l-29.3,14.8L277.2,224.3z"/>
		<path class="st1" d="M335.4,232.1l15.2-7.7l5.1,10.1l-15.2,7.7l10.4,20.6l19.1-9.7l5.1,10.1l-30.2,15.3L309.3,208l30.2-15.3
			l5.1,10.1l-19.1,9.7L335.4,232.1z"/>
		<path class="st1" d="M364.1,204.7l25.8,51l-10,5l-35.6-70.4l13.9-7l32.7,36.4l-21.3-42.1l9.9-5l35.6,70.4l-11.4,5.7L364.1,204.7z"
			/>
	</g>
	<g class="st0">
		<path class="st1" d="M382.4,171l17.5-8.8c11.1-5.6,19.6-2.2,25.3,9.1l18,35.6c5.7,11.3,3.4,20.1-7.7,25.7l-17.5,8.8L382.4,171z
			 M398.6,175.5l25.4,50.3l6.2-3.2c3.5-1.8,4.7-4.7,2.2-9.7l-18.5-36.6c-2.5-5-5.6-5.8-9.1-4L398.6,175.5z"/>
	</g>
	<g class="st0">
		<path class="st1" d="M492.2,203.9l-11.2,5.6l-8.4-11.8l-13.6,6.9l4.5,13.7l-10.2,5.1l-24.3-76.1l16.2-8.2L492.2,203.9z
			 M455.7,194.3l10.7-5.4L443,156.1L455.7,194.3z"/>
		<path class="st1" d="M518.5,190.6c-1.5-1.5-2.5-2.4-5.4-8.1l-5.6-11.1c-3.3-6.5-6.7-7.8-11.8-5.3L492,168l14.5,28.7l-11.1,5.6
			l-35.6-70.4l16.7-8.4c11.5-5.8,19.1-3,24.6,7.9l2.8,5.5c3.7,7.2,3.7,13.1,0,17.9c6.7-0.5,11.2,3.9,14.9,11.3l5.5,10.9
			c1.7,3.4,3.1,5.9,5.5,7.9L518.5,190.6z M476,136.4l10.9,21.6l4.3-2.2c4.1-2.1,5.7-5.2,2.9-10.8l-3.5-6.9c-2.5-5-5.4-6.4-9.3-4.4
			L476,136.4z"/>
	</g>
	
		<image style="overflow:visible;enable-background:new    ;" width="3678" height="3600" xlink:href="calendar-photo.png"  transform="matrix(0.16 0 0 0.17 0.5 0.5)">
	</image>
</g>
<g id="Layer_2">
</g>
</svg>
