<?xml version="1.0" encoding="utf-8"?>
<!-- Generator: Adobe Illustrator 21.1.0, SVG Export Plug-In . SVG Version: 6.00 Build 0)  -->
<svg version="1.1" id="_x32_c6a1ff6-5c72-42cf-b35e-c896e64154b8"
	 xmlns="http://www.w3.org/2000/svg" xmlns:xlink="http://www.w3.org/1999/xlink" x="0px" y="0px" viewBox="0 0 800 600"
	 style="enable-background:new 0 0 800 600;" xml:space="preserve">
<style type="text/css">
	.st0{enable-background:new    ;}
	.st1{fill:#ECF0F1;}
</style>
<title>lockup</title>
<g class="st0">
	<path class="st1" d="M202.4,421v25.5c0,30.7-15.3,48.2-44.9,48.2c-29.6,0-44.9-17.5-44.9-48.2v-99.7c0-30.7,15.3-48.2,44.9-48.2
		c29.6,0,44.9,17.5,44.9,48.2v18.6h-28.5v-20.6c0-13.7-6-18.9-15.6-18.9c-9.6,0-15.6,5.2-15.6,18.9v103.6c0,13.7,6,18.6,15.6,18.6
		c9.6,0,15.6-4.9,15.6-18.6V421H202.4z"/>
	<path class="st1" d="M212.8,346.8c0-30.7,16.2-48.2,45.8-48.2s45.8,17.5,45.8,48.2v99.7c0,30.7-16.2,48.2-45.8,48.2
		s-45.8-17.5-45.8-48.2V346.8z M242.9,448.4c0,13.7,6,18.9,15.6,18.9c9.6,0,15.6-5.2,15.6-18.9V344.8c0-13.7-6-18.9-15.6-18.9
		c-9.6,0-15.6,5.2-15.6,18.9V448.4z"/>
	<path class="st1" d="M345.1,353.6v138.9H318V300.7h37.8l31,114.8V300.7h26.9v191.8h-31L345.1,353.6z"/>
</g>
<g class="st0">
	<path class="st1" d="M416.9,300.7h93.2v27.4h-31.5v164.4h-30.1V328.1h-31.5V300.7z"/>
</g>
<g class="st0">
	<path class="st1" d="M603.5,492.5h-30.4l-5.2-34.8h-37l-5.2,34.8H498l30.7-191.8h44.1L603.5,492.5z M534.7,431.7h29l-14.5-97
		L534.7,431.7z"/>
	<path class="st1" d="M699.4,421v25.5c0,30.7-15.3,48.2-44.9,48.2s-44.9-17.5-44.9-48.2v-99.7c0-30.7,15.3-48.2,44.9-48.2
		s44.9,17.5,44.9,48.2v18.6h-28.5v-20.6c0-13.7-6-18.9-15.6-18.9c-9.6,0-15.6,5.2-15.6,18.9v103.6c0,13.7,6,18.6,15.6,18.6
		c9.6,0,15.6-4.9,15.6-18.6V421H699.4z"/>
	<path class="st1" d="M703.5,300.7h93.2v27.4h-31.5v164.4H735V328.1h-31.5V300.7z"/>
</g>
<image style="overflow:visible;enable-background:new    ;" width="1029" height="3771" xlink:href="contact-photo.png"  transform="matrix(0.16 0 0 0.16 0 0)">
</image>
</svg>
